<?xml version="1.0" standalone="no"?>
<!DOCTYPE svg PUBLIC "-//W3C//DTD SVG 20010904//EN"
 "http://www.w3.org/TR/2001/REC-SVG-20010904/DTD/svg10.dtd">
<svg version="1.0" xmlns="http://www.w3.org/2000/svg"
 width="512.000000pt" height="512.000000pt" viewBox="0 0 512.000000 512.000000"
 preserveAspectRatio="xMidYMid meet">
<metadata>
Created by potrace 1.14, written by Peter Selinger 2001-2017
</metadata>
<g transform="translate(0.000000,512.000000) scale(0.100000,-0.100000)"
fill="#000000" stroke="none">
<path d="M2727 4774 c-1 -1 -47 -4 -102 -8 -145 -9 -236 -20 -278 -32 -11 -4
-29 -7 -40 -9 -32 -4 -159 -35 -177 -42 -8 -3 -17 -7 -20 -8 -3 -1 -12 -4 -20
-8 -8 -3 -33 -11 -55 -18 -78 -23 -304 -125 -380 -172 -59 -36 -204 -133 -230
-153 -16 -14 -35 -28 -40 -32 -22 -15 -92 -77 -135 -117 -298 -281 -508 -628
-621 -1025 -7 -25 -12 -48 -11 -52 1 -4 -15 -20 -35 -35 -75 -56 -89 -69 -169
-148 -188 -189 -257 -354 -258 -615 0 -103 7 -143 45 -240 92 -238 273 -374
520 -389 9 -1 24 -20 35 -43 26 -61 143 -270 162 -291 8 -9 13 -19 10 -22 -3
-3 -41 -12 -84 -19 -161 -29 -172 -31 -209 -46 -16 -6 -32 -11 -35 -11 -3 1
-21 -4 -40 -11 -96 -31 -123 -70 -73 -106 52 -37 260 -91 418 -108 90 -10 90
-10 90 -21 0 -34 -118 -131 -180 -148 -16 -4 -37 -10 -45 -12 -18 -5 -139 -5
-160 0 -8 1 -35 16 -60 32 -103 66 -204 9 -184 -103 8 -43 55 -92 124 -131
109 -60 197 -79 370 -81 40 0 100 31 100 52 0 10 5 18 11 18 23 0 138 88 205
157 42 43 80 73 92 73 11 0 25 7 32 15 17 20 20 19 56 -13 37 -32 57 -47 144
-108 l65 -46 -88 5 c-127 8 -104 -3 38 -18 87 -9 85 -8 145 -43 54 -31 177
-93 253 -126 42 -19 263 -93 299 -100 13 -3 32 -7 43 -9 325 -74 638 -78 952
-13 34 8 65 11 68 8 3 -3 5 1 5 8 0 7 3 11 6 8 3 -4 20 -2 37 3 18 6 42 12 54
15 44 9 200 67 288 107 249 114 454 256 640 442 61 60 121 124 135 140 265
321 421 652 494 1045 23 127 29 217 29 400 -1 194 -9 287 -39 434 -2 11 -7 34
-10 50 -2 16 -7 33 -10 38 -3 5 -7 18 -10 31 -9 50 -14 66 -49 167 -243 695
-837 1239 -1547 1416 -71 17 -77 19 -168 34 -36 6 -76 13 -90 15 -43 8 -307
24 -313 19z"/>
</g>
</svg>
